<?xml version="1.0" standalone="no"?>
<!DOCTYPE svg PUBLIC "-//W3C//DTD SVG 20010904//EN"
 "http://www.w3.org/TR/2001/REC-SVG-20010904/DTD/svg10.dtd">
<svg version="1.0" xmlns="http://www.w3.org/2000/svg"
 width="401.000000pt" height="401.000000pt" viewBox="0 0 401.000000 401.000000"
 preserveAspectRatio="xMidYMid meet">
<metadata>
Created by potrace 1.14, written by Peter Selinger 2001-2017
</metadata>
<g transform="translate(0.000000,401.000000) scale(0.100000,-0.100000)"
fill="#000000" stroke="none">
<path d="M0 2005 l0 -2005 2005 0 2005 0 0 2005 0 2005 -2005 0 -2005 0 0
-2005z m2250 159 l0 -216 -42 34 c-24 19 -92 74 -153 122 l-110 88 -3 -121 -3
-121 -44 0 -45 0 0 212 c0 200 1 210 18 196 80 -69 273 -218 282 -218 6 0 10
43 10 120 l0 120 45 0 45 0 0 -216z m389 196 c40 -20 101 -75 101 -91 0 -15
-105 -10 -136 6 -82 43 -184 -18 -184 -109 0 -123 134 -176 220 -87 l35 36
-67 3 -68 3 0 39 0 40 115 0 115 0 0 -28 c0 -62 -29 -129 -74 -170 -73 -68
-158 -79 -247 -34 -74 37 -111 92 -117 171 -5 72 10 121 51 168 62 71 176 94
256 53z m500 0 c40 -20 101 -75 101 -91 0 -12 -113 -12 -126 1 -5 5 -30 12
-54 15 -103 13 -175 -101 -120 -189 30 -50 89 -72 143 -54 32 10 77 50 77 69
0 5 -27 9 -61 9 l-60 0 3 43 c3 36 6 42 26 41 12 0 63 -1 112 -2 l90 -2 0 -32
c0 -123 -104 -228 -225 -228 -121 0 -217 97 -217 219 -1 91 44 165 124 204 47
23 139 22 187 -3z m501 -25 l0 -45 -100 0 -100 0 0 -45 0 -45 85 0 85 0 0 -40
0 -40 -85 0 -85 0 0 -45 0 -45 100 0 100 0 0 -40 0 -40 -150 0 -150 0 0 215 0
215 150 0 150 0 0 -45z m-1971 -175 c61 -111 111 -203 111 -206 0 -3 -21 -4
-47 -2 l-47 3 -59 105 c-32 58 -62 109 -66 113 -5 5 -37 -44 -72 -107 l-63
-116 -54 0 -53 0 41 73 c22 39 73 132 113 204 39 73 75 133 78 133 4 0 57 -90
118 -200z"/>
</g>
</svg>
